<?xml version="1.0" encoding="UTF-8"?>
<svg width="512" height="512" version="1.1" viewBox="0 0 135.47 135.47"
   xmlns="http://www.w3.org/2000/svg">
   <path d="m65.15 128.36c-0.09998-0.10287-1.2617-0.22427-2.5817-0.26973-1.3199-0.0455-2.539-0.16862-2.709-0.2737-0.17002-0.10512 1.8868-0.4594 4.5706-0.78738 12.579-1.5372 20.679-4.7563 28.181-11.2 4.5005-3.8656 9.1749-11.108 10.512-16.287 0.68338-2.6467 0.65252-7.7758-0.0578-9.5905-2.5904-6.6184-9.8611-10.899-21.633-12.737l-1.8001-0.281 2.4631-1.2468c4.6631-2.3604 11.371-7.9322 13.174-10.943 2.0396-3.4054 2.4568-5.5034 2.6992-9.6685-6.6e-4 -2.0967-0.15483-4.997-0.34273-5.8124-1.4317-6.2132-7.1036-11.764-12.844-12.57l-1.4335-0.2013 2.9253-2.501c5.014-4.2866 16.099-12.582 16.814-12.582 0.11013 0 0.20263 1.902 0.20543 4.2266 6e-3 4.84 0.23182 5.5903 1.2523 4.1572 0.75967-1.0669 8.4473-16.658 9.8087-19.893 1.2873-3.0589 1.2127-3.4078-0.72886-3.4078-0.87813 0-2.4072 0.14466-3.3978 0.32147-2.7764 0.49552-3.6064 0.63115-5.2513 0.85814-5.0333 0.69457-15.426 2.8347-15.857 3.2652-0.43722 0.43722 0.8344 1.1262 3.6856 1.997 1.6183 0.49423 3.2219 0.91966 3.5636 0.94539 0.96308 0.07254 0.75983 0.34376-1.1192 1.4935-0.9572 0.58569-2.4356 1.6241-3.2854 2.3076-8.2139 6.6067-11.767 9.5061-12.046 9.8311-0.18232 0.21193-2.2707 2.0126-4.6409 4.0016-2.3702 1.9889-4.5667 3.8559-4.8812 4.1489-0.48305 0.45-2.7012 0.98015-6.5554 1.5668-3.3782 0.51419-18.719 5.1037-20.212 6.0467-0.97914 0.61859-0.02092 0.70338 2.5238 0.22331 2.4874-0.46924 9.0535-1.25 14.373-1.7091l2.4862-0.21456s-2.9184 3.8064-4.2307 5.3805c-5.3129 6.0648-7.3595 8.6952-10.687 13.736-5.4831 8.306-10.289 16.88-12.356 22.044-2.9794 7.4449-5.4491 14.295-5.2322 14.512 0.23027 0.23026-0.04347 0.58516 3.0113-3.9037 7.0836-10.409 19.564-26.165 27.177-34.31 1.0225-1.0939 3.3794-3.6236 5.2375-5.6215 1.8581-1.9979 4.9447-5.2377 6.8591-7.1995l3.4807-3.5669 1.8609 0.6206c4.9907 1.6644 6.9734 3.756 7.4279 7.836 0.25099 2.2531-0.40967 5.6249-1.5392 7.8556-2.8829 5.6933-8.9774 11.742-16.752 16.626l-2.5994 1.6329 1.1602 0.29639c5.2171 1.3327 8.4472 2.7758 12.203 5.452 2.435 1.735 3.6634 3.2896 5.3189 6.7317 1.1558 2.4031 1.1682 4.0621 1.1809 6.1492 0.01212 1.9949-0.09021 3.824-1.0572 5.8906-2.3206 4.9591-6.3254 8.5657-13.171 11.861-4.4963 2.1648-7.3883 3.152-13.591 4.6397-3.8787 0.93027-4.972 1.049-10.939 1.1883-6.5189 0.1521-6.6946 0.13813-10.493-0.83371-4.0821-1.0443-8.3616-2.8687-11.283-4.81-2.0511-1.363-4.6684-3.5523-4.4764-3.7443 0.07304-0.073 1.9668 0.39511 4.2084 1.0403 2.2416 0.64519 4.1378 1.1108 4.2139 1.0347 0.07605-0.076-1.1487-1.6776-2.7219-3.5588-6.3978-7.6511-10.321-16.251-12.156-26.647-2.8-15.864 2.2481-32.947 13.438-45.476 7.8013-8.7344 18.184-14.654 30.541-17.413 2.8834-0.64382 4.2427-0.73822 10.442-0.72526 5.3546 0.01115 7.7042 0.1486 9.4476 0.5525 1.2762 0.29568 3.4642 0.79327 4.862 1.1057l2.5416 0.56814 3.4916-2.5971c1.9204-1.4284 3.4276-2.7006 3.3494-2.8272-0.0782-0.12657-0.55556-0.31318-1.0607-0.41469-1.378-0.27688-3.1891-1.6279-3.5472-2.6462-0.46995-1.3363 0.10587-2.6244 1.4702-3.2887 1.2901-0.62815 5.2127-1.5452 11.932-2.7895 9.3486-1.7312 11.83-2.1093 13.865-2.1127 1.8985-0.0031 2.1932 0.09246 3.109 1.0083 1.7316 1.7316 1.4644 2.6071-4.8537 15.907-2.0685 4.3543-4.3734 8.8342-5.1221 9.9553l-1.3612 2.0384 2.2984 2.4611c7.7056 8.2511 12.486 17.771 14.621 29.114 0.66799 3.5492 0.72436 4.586 0.53445 9.829-0.13591 3.7519-0.46206 7.1555-0.90631 9.4578-2.7649 14.329-10.549 26.323-22.589 34.808-6.3152 4.4504-14.692 7.8799-22.47 9.1991-3.0312 0.51412-11.651 1.0476-11.95 0.73964z" fill="#3f51b5" stroke-width=".3315"/>
</svg>
