<?xml version="1.0" encoding="UTF-8" standalone="no"?>
<!-- Created with Inkscape (http://www.inkscape.org/) -->

<svg
   width="512"
   height="512"
   viewBox="0 0 135.46666 135.46667"
   version="1.1"
   id="svg12728"
   inkscape:export-filename="C:\Users\nssre\OneDrive\Documents\Projects\Bills\Develop\images\black logo.png"
   inkscape:export-xdpi="96"
   inkscape:export-ydpi="96"
   inkscape:version="1.1.1 (3bf5ae0d25, 2021-09-20)"
   sodipodi:docname="logo.svg"
   xmlns:inkscape="http://www.inkscape.org/namespaces/inkscape"
   xmlns:sodipodi="http://sodipodi.sourceforge.net/DTD/sodipodi-0.dtd"
   xmlns="http://www.w3.org/2000/svg"
   xmlns:svg="http://www.w3.org/2000/svg">
  <sodipodi:namedview
     id="namedview12730"
     pagecolor="#ffffff"
     bordercolor="#666666"
     borderopacity="1.0"
     inkscape:pageshadow="2"
     inkscape:pageopacity="0.0"
     inkscape:pagecheckerboard="0"
     inkscape:document-units="px"
     showgrid="false"
     units="px"
     inkscape:snap-object-midpoints="true"
     inkscape:object-nodes="false"
     inkscape:snap-nodes="false"
     inkscape:zoom="0.76791526"
     inkscape:cx="-1.9533405"
     inkscape:cy="184.26512"
     inkscape:window-width="1920"
     inkscape:window-height="1051"
     inkscape:window-x="-9"
     inkscape:window-y="-9"
     inkscape:window-maximized="1"
     inkscape:current-layer="layer1" />
  <defs
     id="defs12725" />
  <g
     inkscape:label="Layer 1"
     inkscape:groupmode="layer"
     id="layer1">
    <path
       style="fill:#000000;stroke-width:0.331495"
       d="m 65.150426,128.35921 c -0.09998,-0.10287 -1.26174,-0.22427 -2.581665,-0.26973 -1.319925,-0.0455 -2.538966,-0.16862 -2.708984,-0.2737 -0.170018,-0.10512 1.886772,-0.4594 4.570635,-0.78738 12.579026,-1.53723 20.678515,-4.75633 28.181079,-11.20042 4.50049,-3.86557 9.174939,-11.10779 10.512079,-16.286617 0.68338,-2.646728 0.65252,-7.775833 -0.0578,-9.590457 C 100.4754,83.332475 93.204671,79.051673 81.432781,77.214017 l -1.800072,-0.281002 2.463066,-1.246769 c 4.663087,-2.360385 11.371126,-7.932247 13.174316,-10.942932 2.03962,-3.405412 2.456828,-5.503361 2.69921,-9.668499 -6.6e-4,-2.096706 -0.15483,-4.997042 -0.34273,-5.812421 -1.4317,-6.213242 -7.10363,-11.764445 -12.84385,-12.570475 l -1.433547,-0.201304 2.925321,-2.50096 c 5.013976,-4.28663 16.099235,-12.582066 16.813505,-12.582066 0.11013,0 0.20263,1.901953 0.20543,4.226563 0.006,4.840044 0.23182,5.590296 1.2523,4.15716 0.75967,-1.066858 8.4473,-16.658222 9.80872,-19.8931877 1.28731,-3.0588613 1.21269,-3.4078123 -0.72886,-3.4078123 -0.87813,0 -2.40715,0.144663 -3.39782,0.321472 -2.77644,0.4955189 -3.60642,0.6311499 -5.25134,0.8581419 -5.03331,0.694568 -15.426219,2.8346741 -15.856761,3.2652191 -0.437223,0.437225 0.834402,1.126237 3.685552,1.996965 1.61834,0.49423 3.22194,0.919655 3.56357,0.94539 0.96308,0.07254 0.75983,0.343759 -1.11918,1.493508 -0.9572,0.585693 -2.43563,1.624127 -3.28542,2.307632 -8.213891,6.606658 -11.766687,9.50614 -12.046233,9.831088 -0.182321,0.211928 -2.270746,2.012639 -4.640935,4.001579 -2.370189,1.988944 -4.566714,3.855928 -4.881165,4.148857 -0.483054,0.449997 -2.701179,0.980149 -6.555409,1.566795 -3.378192,0.514186 -18.718924,5.103655 -20.211611,6.046676 -0.979137,0.618589 -0.02092,0.703376 2.523782,0.223311 2.487372,-0.469244 9.053455,-1.250023 14.37287,-1.709089 l 2.486219,-0.214561 c 0,0 -2.918384,3.806443 -4.230674,5.380504 -5.312926,6.064828 -7.359479,8.695242 -10.687093,13.735956 -5.483143,8.305958 -10.288947,16.880326 -12.355559,22.044423 -2.979397,7.444941 -5.449078,14.294646 -5.232189,14.51154 0.230269,0.23026 -0.04347,0.58516 3.011295,-3.903694 7.083579,-10.408939 19.564052,-26.1651 27.176779,-34.309744 1.0225,-1.093934 3.379357,-3.62363 5.237463,-5.621543 1.858106,-1.997915 4.9447,-5.237692 6.859073,-7.199507 l 3.480704,-3.56694 1.8609,0.620595 c 4.990693,1.664354 6.973424,3.756008 7.427912,7.835957 0.250992,2.253146 -0.409672,5.624899 -1.539244,7.855632 -2.882898,5.693331 -8.97743,11.741866 -16.752456,16.626016 l -2.599444,1.632928 1.160244,0.296386 c 5.217054,1.332723 8.447179,2.775841 12.203245,5.452037 2.435039,1.734956 3.663414,3.289618 5.318902,6.731733 1.155782,2.403104 1.168248,4.062062 1.180928,6.14922 0.01212,1.994865 -0.09021,3.824038 -1.057218,5.890585 -2.320649,4.9591 -6.325377,8.56573 -13.17068,11.8614 -4.496339,2.16477 -7.388283,3.152 -13.591302,4.63971 -3.878737,0.93027 -4.972038,1.04903 -10.939338,1.18826 -6.518899,0.1521 -6.69458,0.13813 -10.493369,-0.83371 -4.082095,-1.04433 -8.361595,-2.8687 -11.283032,-4.81005 -2.051089,-1.36296 -4.668424,-3.55226 -4.47638,-3.7443 0.07304,-0.073 1.966794,0.39511 4.208361,1.0403 2.241579,0.64519 4.137848,1.11083 4.213936,1.03474 0.07605,-0.076 -1.148742,-1.67757 -2.721851,-3.55884 C 18.823802,100.90177 14.901039,92.302339 13.065999,81.905441 10.266017,66.041449 15.314143,48.958371 26.504285,36.4297 34.30556,27.695265 44.687823,21.775681 57.044798,19.016632 c 2.88345,-0.643815 4.242665,-0.73822 10.442089,-0.725263 5.354646,0.01115 7.704238,0.148598 9.447616,0.552503 1.276248,0.295684 3.464153,0.793269 4.862008,1.105746 l 2.54156,0.568139 3.491617,-2.597083 c 1.920383,-1.428397 3.427603,-2.700645 3.349373,-2.827219 -0.0782,-0.126573 -0.55556,-0.313184 -1.06074,-0.41469 -1.378004,-0.276885 -3.189126,-1.627948 -3.547203,-2.646167 -0.469949,-1.336278 0.105869,-2.6243924 1.470184,-3.2886561 1.290118,-0.628154 5.212689,-1.545172 11.932108,-2.7894799 9.34865,-1.731193 11.83047,-2.109348 13.86541,-2.112678 1.89854,-0.0031 2.19325,0.09246 3.10904,1.008254 1.73158,1.731585 1.46444,2.6070999 -4.85368,15.907117 -2.06849,4.354299 -4.37342,8.834176 -5.12208,9.955283 l -1.36117,2.038373 2.29838,2.461079 c 7.70565,8.251131 12.48644,17.770652 14.62136,29.114124 0.66799,3.54925 0.72436,4.585976 0.53445,9.828983 -0.13591,3.751923 -0.46206,7.15554 -0.90631,9.457797 -2.76488,14.328655 -10.54855,26.322766 -22.58873,34.807716 -6.315219,4.45044 -14.691999,7.87988 -22.469832,9.19906 -3.031166,0.51412 -11.650581,1.04761 -11.949872,0.73964 z"
       id="path12744"
       sodipodi:nodetypes="cccssscscssccscsscssssssssscsssssssccssscssscsssscsssacssssscscsssscsscscscsssssccsssssscc" />
  </g>
</svg>
